<?xml version="1.0" encoding="UTF-8" standalone="no"?>
<svg
   xmlns:dc="http://purl.org/dc/elements/1.1/"
   xmlns:cc="http://creativecommons.org/ns#"
   xmlns:rdf="http://www.w3.org/1999/02/22-rdf-syntax-ns#"
   xmlns:svg="http://www.w3.org/2000/svg"
   xmlns="http://www.w3.org/2000/svg"
   viewBox="0 0 1866.6667 1306.6667"
   height="1306.6667"
   width="1866.6667"
   xml:space="preserve"
   id="svg2"
   version="1.1"><metadata
     id="metadata8"><rdf:RDF><cc:Work
         rdf:about=""><dc:format>image/svg+xml</dc:format><dc:type
           rdf:resource="http://purl.org/dc/dcmitype/StillImage" /></cc:Work></rdf:RDF></metadata><defs
     id="defs6"><clipPath
       id="clipPath18"
       clipPathUnits="userSpaceOnUse"><path
         id="path16"
         d="M 0,5018 H 9069 V 0 H 0 Z" /></clipPath><pattern
       id="pattern88"
       height="501.765"
       width="906.835"
       y="0"
       x="0"
       patternUnits="userSpaceOnUse"
       patternTransform="matrix(10,0,0,10,0,4782)"><g
         id="g86"
         transform="scale(0.1)"><g
           id="g84"><g
             id="g82"
             clip-path="url(#clipPath18)"><path
               id="path20"
               style="fill:none;stroke:#3e52c3;stroke-opacity:1;stroke-width:340;stroke-linecap:butt;stroke-linejoin:miter;stroke-miterlimit:10;stroke-dasharray:none"
               d="m 8407.7,580.633 c -70,-220 -120,-740 360,-860 480,-120 790,299.9998 1170,100 319.1,-167.93 340,-560 90,-830.003" /><path
               id="path22"
               style="fill:none;stroke:#26c568;stroke-opacity:1;stroke-width:340;stroke-linecap:butt;stroke-linejoin:miter;stroke-miterlimit:10;stroke-dasharray:none"
               d="m 9010.85,500.004 c 688.88,341.801 607.92,1149.126 52.62,1425.626" /><path
               id="path24"
               style="fill:none;stroke:#ff9c2d;stroke-opacity:1;stroke-width:340;stroke-linecap:butt;stroke-linejoin:miter;stroke-miterlimit:10;stroke-dasharray:none"
               d="m 7883.54,-547.824 c -252.78,-283.985 -566.27,-402.258 -822.39,-162.707 -269.2,251.777 -110.01,699.5115 357.72,847.785 364.67,115.601 229.06,588.062 -46.47,633.656 -351.2,58.113 -297.59,-420.027 -708.71,-410.375" /><path
               id="path26"
               style="fill:none;stroke:#c3db6c;stroke-opacity:1;stroke-width:340;stroke-linecap:butt;stroke-linejoin:miter;stroke-miterlimit:10;stroke-dasharray:none"
               d="m 8010.38,2177.14 -94.7,-512.97 c 0,0 749.73,118.38 584,-733.951" /><path
               id="path28"
               style="fill:#726769;fill-opacity:1;fill-rule:nonzero;stroke:none"
               d="m 7358.35,1874.99 c 161.22,0 161.22,250 0,250 -161.22,0 -161.22,-250 0,-250 l 0,0" /><path
               id="path30"
               style="fill:none;stroke:#ffbfb9;stroke-opacity:1;stroke-width:340;stroke-linecap:butt;stroke-linejoin:miter;stroke-miterlimit:10;stroke-dasharray:none"
               d="m 5300.38,-85.8984 723.14,-332.2966 -320,-460 583.35,-265.225" /><path
               id="path32"
               style="fill:#ebdfcd;fill-opacity:1;fill-rule:nonzero;stroke:none"
               d="m 4734.17,-168.836 c 193.46,0 193.46,300 0,300 -193.46,0 -193.46,-300 0,-300 l 0,0" /><path
               id="path34"
               style="fill:none;stroke:#ff4460;stroke-opacity:1;stroke-width:340;stroke-linecap:butt;stroke-linejoin:miter;stroke-miterlimit:10;stroke-dasharray:none"
               d="m 949.348,404.863 c 98.322,206.992 455.382,496.785 843.492,248.391 405.38,-259.438 71.2,-662.69541 155.25,-988.391 82.79,-320.84 481.26,-258.742 481.26,-258.742" /><path
               id="path36"
               style="fill:none;stroke:#3e52c3;stroke-opacity:1;stroke-width:340;stroke-linecap:butt;stroke-linejoin:miter;stroke-miterlimit:10;stroke-dasharray:none"
               d="m -660.652,580.633 c -70,-220 -120,-740 360,-860 480,-120 790,299.9998 1170,100 319.062,-167.93 340.002,-560 90,-830.003" /><path
               id="path38"
               style="fill:none;stroke:#26c568;stroke-opacity:1;stroke-width:340;stroke-linecap:butt;stroke-linejoin:miter;stroke-miterlimit:10;stroke-dasharray:none"
               d="M -57.5039,500.004 C 631.379,841.805 550.422,1649.13 -4.88281,1925.63" /><path
               id="path40"
               style="fill:none;stroke:#ffbfb9;stroke-opacity:1;stroke-width:340;stroke-linecap:butt;stroke-linejoin:miter;stroke-miterlimit:10;stroke-dasharray:none"
               d="m 766.199,2422.93 723.151,-332.3 -320,-460 583.34,-265.22" /><path
               id="path42"
               style="fill:#ebdfcd;fill-opacity:1;fill-rule:nonzero;stroke:none"
               d="m 199.996,2339.99 c 193.461,0 193.461,300 0,300 -193.45694,0 -193.45694,-300 0,-300 l 0,0" /><path
               id="path44"
               style="fill:none;stroke:#3e52c3;stroke-opacity:1;stroke-width:340;stroke-linecap:butt;stroke-linejoin:miter;stroke-miterlimit:10;stroke-dasharray:none"
               d="m 8407.7,5598.29 c -70,-220 -120,-740 360,-860 480,-120 790,300 1170,100 319.1,-167.93 340,-560 90,-830" /><path
               id="path46"
               style="fill:none;stroke:#b0c5ed;stroke-opacity:1;stroke-width:340;stroke-linecap:butt;stroke-linejoin:miter;stroke-miterlimit:10;stroke-dasharray:none"
               d="m 9545.62,3152.45 -505.93,659.19 -426.3,-743.75 -453.27,575.37 -415.17,-695.01 -530.72,685.37" /><path
               id="path48"
               style="fill:none;stroke:#ff9c2d;stroke-opacity:1;stroke-width:340;stroke-linecap:butt;stroke-linejoin:miter;stroke-miterlimit:10;stroke-dasharray:none"
               d="m 7883.54,4469.83 c -252.78,-283.99 -566.27,-402.26 -822.39,-162.71 -269.2,251.78 -110.01,699.51 357.72,847.79 364.67,115.6 229.06,588.06 -46.47,633.65 -351.2,58.12 -297.59,-420.02 -708.71,-410.37" /><path
               id="path50"
               style="fill:#ebdfcd;fill-opacity:1;fill-rule:nonzero;stroke:none"
               d="m 8388.35,4097.65 c 193.46,0 193.46,300 0,300 -193.46,0 -193.46,-300 0,-300 l 0,0" /><path
               id="path52"
               style="fill:none;stroke:#ff4460;stroke-opacity:1;stroke-width:340;stroke-linecap:butt;stroke-linejoin:miter;stroke-miterlimit:10;stroke-dasharray:none"
               d="m 5483.52,2913.69 c 98.32,206.99 455.39,496.78 843.5,248.39 405.37,-259.44 71.19,-662.7 155.24,-988.39 82.8,-320.84 481.26,-258.74 481.26,-258.74" /><path
               id="path54"
               style="fill:none;stroke:#3e52c3;stroke-opacity:1;stroke-width:340;stroke-linecap:butt;stroke-linejoin:miter;stroke-miterlimit:10;stroke-dasharray:none"
               d="m 3873.52,3089.46 c -70,-220 -120,-740 360,-860 480,-120 790,300 1170,100 319.06,-167.93 340,-560 90,-830" /><path
               id="path56"
               style="fill:none;stroke:#26c568;stroke-opacity:1;stroke-width:340;stroke-linecap:butt;stroke-linejoin:miter;stroke-miterlimit:10;stroke-dasharray:none"
               d="m 4476.67,3008.83 c 688.88,341.8 607.93,1149.12 52.62,1425.63" /><path
               id="path58"
               style="fill:none;stroke:#b0c5ed;stroke-opacity:1;stroke-width:340;stroke-linecap:butt;stroke-linejoin:miter;stroke-miterlimit:10;stroke-dasharray:none"
               d="M 5011.44,643.621 4505.51,1302.82 4079.21,559.063 3625.94,1134.43 3210.78,439.422 2680.05,1124.79" /><path
               id="path60"
               style="fill:none;stroke:#ff9c2d;stroke-opacity:1;stroke-width:340;stroke-linecap:butt;stroke-linejoin:miter;stroke-miterlimit:10;stroke-dasharray:none"
               d="m 3349.37,1961 c -252.79,-283.98 -566.27,-402.26 -822.4,-162.7 -269.19,251.77 -110.01,699.51 357.73,847.78 364.66,115.6 229.05,588.06 -46.47,633.66 -351.2,58.11 -297.59,-420.03 -708.72,-410.38" /><path
               id="path62"
               style="fill:none;stroke:#ffbfb9;stroke-opacity:1;stroke-width:340;stroke-linecap:butt;stroke-linejoin:miter;stroke-miterlimit:10;stroke-dasharray:none"
               d="m 5300.38,4931.76 723.14,-332.3 -320,-460 583.35,-265.23" /><path
               id="path64"
               style="fill:none;stroke:#c3db6c;stroke-opacity:1;stroke-width:340;stroke-linecap:butt;stroke-linejoin:miter;stroke-miterlimit:10;stroke-dasharray:none"
               d="M 3476.2,4685.97 3381.5,4173 c 0,0 749.73,118.37 584,-733.96" /><path
               id="path66"
               style="fill:none;stroke:#726769;stroke-opacity:1;stroke-width:340;stroke-linecap:butt;stroke-linejoin:miter;stroke-miterlimit:10;stroke-dasharray:none"
               d="m 5393.23,447.055 c 0,0 125.69,-188.93 421.32,-150.809 305.09,39.34 171.37,470.527 319.62,642.574 203.4,236.05 537.55,72.13 537.55,72.13" /><path
               id="path68"
               style="fill:#726769;fill-opacity:1;fill-rule:nonzero;stroke:none"
               d="m 2824.17,4383.82 c 161.22,0 161.22,250 0,250 -161.21,0 -161.21,-250 0,-250 l 0,0" /><path
               id="path70"
               style="fill:#ebdfcd;fill-opacity:1;fill-rule:nonzero;stroke:none"
               d="m 4734.17,4848.82 c 193.46,0 193.46,300 0,300 -193.46,0 -193.46,-300 0,-300 l 0,0" /><path
               id="path72"
               style="fill:#ebdfcd;fill-opacity:1;fill-rule:nonzero;stroke:none"
               d="m 3854.17,1588.82 c 193.46,0 193.46,300 0,300 -193.46,0 -193.46,-300 0,-300 l 0,0" /><path
               id="path74"
               style="fill:none;stroke:#ff4460;stroke-opacity:1;stroke-width:340;stroke-linecap:butt;stroke-linejoin:miter;stroke-miterlimit:10;stroke-dasharray:none"
               d="m 949.348,5422.52 c 98.322,206.99 455.382,496.78 843.492,248.39 405.38,-259.44 71.2,-662.7 155.25,-988.39 82.79,-320.84 481.26,-258.74 481.26,-258.74" /><path
               id="path76"
               style="fill:none;stroke:#3e52c3;stroke-opacity:1;stroke-width:340;stroke-linecap:butt;stroke-linejoin:miter;stroke-miterlimit:10;stroke-dasharray:none"
               d="m -660.652,5598.29 c -70,-220 -120,-740 360,-860 480,-120 790,300 1170,100 319.062,-167.93 340.002,-560 90,-830" /><path
               id="path78"
               style="fill:none;stroke:#b0c5ed;stroke-opacity:1;stroke-width:340;stroke-linecap:butt;stroke-linejoin:miter;stroke-miterlimit:10;stroke-dasharray:none"
               d="m 477.266,3152.45 -505.9262,659.19 -426.3008,-743.75 -453.273,575.37 -415.166,-695.01 -530.72,685.37" /><path
               id="path80"
               style="fill:none;stroke:#726769;stroke-opacity:1;stroke-width:340;stroke-linecap:butt;stroke-linejoin:miter;stroke-miterlimit:10;stroke-dasharray:none"
               d="m 859.051,2955.88 c 0,0 125.695,-188.93 421.319,-150.81 305.1,39.34 171.38,470.53 319.63,642.58 203.39,236.04 537.55,72.12 537.55,72.12" /></g></g></g></pattern></defs><g
     transform="matrix(1.3333333,0,0,-1.3333333,0,1306.6667)"
     id="g10"><g
       transform="scale(0.1)"
       id="g12"><path
         id="path14"
         style="fill:#f3efef;fill-opacity:1;fill-rule:nonzero;stroke:none"
         d="M 14000,0 H 0 V 9800 H 14000 V 0" /><path
         id="path90"
         style="fill:url(#pattern88);fill-opacity:1;fill-rule:nonzero;stroke:none"
         d="M 14000,0 H 0 V 9800 H 14000 V 0" /></g></g></svg>