<?xml version="1.0" encoding="UTF-8" standalone="no"?>
<svg
   xmlns:dc="http://purl.org/dc/elements/1.1/"
   xmlns:cc="http://creativecommons.org/ns#"
   xmlns:rdf="http://www.w3.org/1999/02/22-rdf-syntax-ns#"
   xmlns:svg="http://www.w3.org/2000/svg"
   xmlns="http://www.w3.org/2000/svg"
   xmlns:sodipodi="http://sodipodi.sourceforge.net/DTD/sodipodi-0.dtd"
   xmlns:inkscape="http://www.inkscape.org/namespaces/inkscape"
   id="svg1450"
   version="1.1"
   viewBox="0 0 143.69511 163.20289"
   height="616.82983"
   width="543.09961"
   sodipodi:docname="esagono.svg"
   inkscape:version="0.92.5 (2060ec1f9f, 2020-04-08)">
  <sodipodi:namedview
     pagecolor="#ffffff"
     bordercolor="#666666"
     borderopacity="1"
     objecttolerance="10"
     gridtolerance="10"
     guidetolerance="10"
     inkscape:pageopacity="0"
     inkscape:pageshadow="2"
     inkscape:window-width="1920"
     inkscape:window-height="1053"
     id="namedview9"
     showgrid="false"
     fit-margin-top="0"
     fit-margin-left="0"
     fit-margin-right="0"
     fit-margin-bottom="0"
     inkscape:zoom="1.0748829"
     inkscape:cx="419.28347"
     inkscape:cy="307.06462"
     inkscape:window-x="0"
     inkscape:window-y="27"
     inkscape:window-maximized="1"
     inkscape:current-layer="layer1" />
  <defs
     id="defs1444" />
  <metadata
     id="metadata1447">
    <rdf:RDF>
      <cc:Work
         rdf:about="">
        <dc:format>image/svg+xml</dc:format>
        <dc:type
           rdf:resource="http://purl.org/dc/dcmitype/StillImage" />
        <dc:title></dc:title>
      </cc:Work>
    </rdf:RDF>
  </metadata>
  <g
     transform="translate(-44.839107,-20.868404)"
     id="layer1">
    <path
       inkscape:connector-curvature="0"
       style="display:inline;fill:none;fill-opacity:1;stroke:#dddddd;stroke-width:0.26458335;stroke-linecap:butt;stroke-linejoin:miter;stroke-miterlimit:4;stroke-dasharray:none;stroke-opacity:1"
       d="m 116.83626,21.001743 c -1.52847,-0.02523 -2.90874,0.407413 -4.23126,1.020609 L 48.955135,58.773596 c -2.254591,1.301689 -3.983736,4.26893 -3.983736,6.965983 v 73.054451 c 0,1.95376 0.392829,4.9702 4.433321,7.67861 l 62.60083,36.14249 c 3.436,1.90892 6.48734,1.6253 9.30331,0 l 62.66749,-36.18127 c 2.09864,-1.52592 4.17196,-3.0933 4.42557,-7.66566 V 66.257377 c -0.0894,-4.00142 -1.97431,-6.175187 -4.46432,-7.732345 l -63.22457,-36.50268 c -1.40974,-0.704484 -2.68796,-1.000992 -3.87677,-1.020609 z m -0.1912,32.731849 c 0.71709,0.01189 1.48801,0.19104 2.33836,0.615985 l 38.13721,22.018294 c 1.50198,0.939276 2.63892,2.250659 2.69285,4.664314 V 124.7706 c -0.15298,2.75805 -1.40369,3.70355 -2.6696,4.624 l -37.80079,21.82451 c -1.69859,0.98038 -3.53947,1.15147 -5.61206,0 L 75.970024,129.41786 c -2.437225,-1.63372 -2.673739,-3.45327 -2.673739,-4.63177 V 80.719542 c 0,-1.62686 1.042985,-3.416115 2.402954,-4.201292 L 114.09276,54.349577 c 0.79775,-0.369879 1.63033,-0.631197 2.5523,-0.615985 z"
       id="path3960" />
  </g>
</svg>
